<svg xmlns="http://www.w3.org/2000/svg" width="410" height="410" viewBox="0 0 410 410">
  <g fill="none" stroke="#c2bdb4" stroke-width="1.1" stroke-linecap="round" stroke-linejoin="round">

    <!-- Row 1 -->
    <g transform="translate(15,15) rotate(-8,10,12)">
      <circle cx="10" cy="12" r="8"/><line x1="10" y1="12" x2="10" y2="8"/><line x1="10" y1="12" x2="13" y2="12"/>
      <line x1="4" y1="3" x2="7" y2="5"/><line x1="16" y1="3" x2="13" y2="5"/>
      <line x1="10" y1="20" x2="8" y2="23"/><line x1="10" y1="20" x2="12" y2="23"/>
    </g>
    <g transform="translate(65,22) rotate(15,8,8)">
      <polygon points="8,0 10,6 16,6 11,10 13,16 8,12 3,16 5,10 0,6 6,6"/>
    </g>
    <g transform="translate(105,14) rotate(-20,11,6)">
      <circle cx="6" cy="6" r="5"/><line x1="11" y1="6" x2="22" y2="6"/>
      <line x1="22" y1="6" x2="22" y2="10"/><line x1="18" y1="6" x2="18" y2="9"/>
    </g>
    <g transform="translate(152,8) rotate(10,10,8)">
      <circle cx="4" cy="14" r="3"/><line x1="7" y1="14" x2="7" y2="2"/>
      <circle cx="14" cy="12" r="3"/><line x1="17" y1="12" x2="17" y2="0"/>
      <line x1="7" y1="2" x2="17" y2="0"/>
    </g>
    <g transform="translate(200,12) rotate(5,9,10)">
      <rect x="0" y="3" width="18" height="16" rx="2"/>
      <line x1="0" y1="8" x2="18" y2="8"/><line x1="5" y1="0" x2="5" y2="5"/><line x1="13" y1="0" x2="13" y2="5"/>
      <text x="4" y="17" font-size="7" fill="#c2bdb4" stroke="none" font-family="Arial">24</text>
    </g>
    <g transform="translate(248,6) rotate(-12,10,14)">
      <ellipse cx="10" cy="8" rx="8" ry="10"/>
      <line x1="4" y1="16" x2="7" y2="22"/><line x1="16" y1="16" x2="13" y2="22"/>
      <rect x="6" y="22" width="8" height="4" rx="1"/>
    </g>
    <g transform="translate(295,18) rotate(8,10,10)">
      <rect x="0" y="4" width="20" height="14" rx="2"/>
      <circle cx="10" cy="12" r="4"/>
      <rect x="6" y="1" width="8" height="4" rx="1"/>
    </g>
    <g transform="translate(345,10) rotate(22,10,10)">
      <circle cx="10" cy="10" r="3"/>
      <circle cx="10" cy="4" r="3" fill="none"/><circle cx="10" cy="16" r="3" fill="none"/>
      <circle cx="4" cy="10" r="3" fill="none"/><circle cx="16" cy="10" r="3" fill="none"/>
    </g>
    <g transform="translate(390,14) rotate(-15,8,10)">
      <path d="M0 10l15-8v20z"/><rect x="15" y="6" width="5" height="12" rx="1"/>
    </g>

    <!-- Row 2 -->
    <g transform="translate(30,62) rotate(12,10,10)">
      <circle cx="10" cy="10" r="9"/>
      <circle cx="7" cy="8" r="1.2" fill="#c2bdb4" stroke="none"/>
      <circle cx="13" cy="8" r="1.2" fill="#c2bdb4" stroke="none"/>
      <path d="M6 13c2 2 6 2 8 0"/>
    </g>
    <g transform="translate(80,58) rotate(-5,9,10)">
      <rect x="0" y="6" width="18" height="14" rx="1"/>
      <rect x="-1" y="6" width="20" height="5" rx="1"/>
      <line x1="9" y1="6" x2="9" y2="20"/>
      <path d="M9 6C7 2 3 2 3 5"/><path d="M9 6C11 2 15 2 15 5"/>
    </g>
    <g transform="translate(128,65) rotate(18,10,8)">
      <path d="M5 16h14a6 6 0 00-2-11 7 7 0 00-13 4 5 5 0 001 7z"/>
    </g>
    <g transform="translate(175,55) rotate(-10,10,7)">
      <rect x="0" y="0" width="20" height="14" rx="4"/>
      <path d="M4 14l-3 6 6-4"/>
      <line x1="4" y1="5" x2="16" y2="5"/><line x1="4" y1="9" x2="12" y2="9"/>
    </g>
    <g transform="translate(222,62) rotate(7,12,10)">
      <path d="M10 0C4 0 0 5 0 10c0 6 5 10 10 10 2 0 3-1 3-2 0-1 0-1-1-2s-1-1-1-2c0-2 1-3 3-3h4c4 0 7-3 7-6C25 2 18 0 10 0z"/>
      <circle cx="7" cy="7" r="1.5" fill="#c2bdb4" stroke="none"/>
      <circle cx="13" cy="5" r="1.5" fill="#c2bdb4" stroke="none"/>
      <circle cx="17" cy="8" r="1.5" fill="#c2bdb4" stroke="none"/>
    </g>
    <g transform="translate(278,58) rotate(-18,9,10)">
      <rect x="3" y="0" width="12" height="20" rx="2"/>
      <line x1="7" y1="16" x2="11" y2="16"/>
      <rect x="5" y="3" width="8" height="10" rx="0.5"/>
    </g>
    <g transform="translate(325,55) rotate(14,10,10)">
      <circle cx="10" cy="10" r="9"/>
      <path d="M1 10h18"/><path d="M10 1v18"/>
      <path d="M3 3c4 3 4 11 0 14"/><path d="M17 3c-4 3-4 11 0 14"/>
    </g>
    <g transform="translate(378,58) rotate(-25,8,12)">
      <rect x="2" y="0" width="12" height="16" rx="6"/>
      <line x1="8" y1="16" x2="8" y2="23"/>
    </g>

    <!-- Row 3 -->
    <g transform="translate(10,110) rotate(10,9,12)">
      <rect x="2" y="10" width="14" height="10" rx="2"/>
      <path d="M5 10V7a4 4 0 018 0v3"/>
      <circle cx="9" cy="15" r="1.5" fill="#c2bdb4" stroke="none"/>
    </g>
    <g transform="translate(60,112) rotate(-22,10,10)">
      <path d="M10 20L2 11C-2 6 3 0 10 6c7-6 12 0 8 5z"/>
    </g>
    <g transform="translate(112,108) rotate(6,11,12)">
      <path d="M3 14V10a8 8 0 0116 0v4"/>
      <rect x="0" y="12" width="5" height="8" rx="2"/>
      <rect x="17" y="12" width="5" height="8" rx="2"/>
    </g>
    <g transform="translate(162,112) rotate(-14,10,10)">
      <circle cx="10" cy="10" r="9"/>
      <polygon points="10,3 12,9 10,10 8,9" fill="#c2bdb4" stroke="none"/>
      <polygon points="10,17 8,11 10,10 12,11" fill="none"/>
    </g>
    <g transform="translate(212,108) rotate(20,7,10)">
      <rect x="0" y="0" width="14" height="16" rx="2"/>
      <path d="M14 4h4a2 2 0 010 8h-4"/>
      <line x1="0" y1="19" x2="14" y2="19"/>
    </g>
    <g transform="translate(262,110) rotate(-8,10,12)">
      <line x1="10" y1="10" x2="10" y2="22"/>
      <path d="M10 10c-8-2-10-8-8-10"/><path d="M10 10c8-2 10-8 8-10"/>
      <path d="M10 10c-6 1-10-2-10-5"/><path d="M10 10c6 1 10-2 10-5"/>
    </g>
    <g transform="translate(315,105) rotate(16,9,9)">
      <rect x="0" y="0" width="18" height="18" rx="3"/>
      <circle cx="5" cy="5" r="1.5" fill="#c2bdb4" stroke="none"/>
      <circle cx="13" cy="5" r="1.5" fill="#c2bdb4" stroke="none"/>
      <circle cx="9" cy="9" r="1.5" fill="#c2bdb4" stroke="none"/>
      <circle cx="5" cy="13" r="1.5" fill="#c2bdb4" stroke="none"/>
      <circle cx="13" cy="13" r="1.5" fill="#c2bdb4" stroke="none"/>
    </g>
    <g transform="translate(362,112) rotate(-12,10,10)">
      <circle cx="10" cy="10" r="9"/>
      <circle cx="10" cy="10" r="3"/>
      <circle cx="10" cy="3" r="1.5" fill="#c2bdb4" stroke="none"/>
      <circle cx="10" cy="17" r="1.5" fill="#c2bdb4" stroke="none"/>
      <circle cx="3" cy="10" r="1.5" fill="#c2bdb4" stroke="none"/>
      <circle cx="17" cy="10" r="1.5" fill="#c2bdb4" stroke="none"/>
    </g>

    <!-- Row 4 -->
    <g transform="translate(20,160) rotate(-6,12,12)">
      <circle cx="5" cy="14" r="5"/><circle cx="19" cy="14" r="5"/>
      <path d="M5 14l5-8h6l3 8"/><line x1="10" y1="6" x2="14" y2="6"/>
    </g>
    <g transform="translate(75,165) rotate(18,14,10)">
      <path d="M0 16A14 14 0 0128 16z"/>
      <path d="M4 16A10 10 0 0124 16"/>
      <circle cx="10" cy="13" r="1" fill="#c2bdb4" stroke="none"/>
      <circle cx="14" cy="11" r="1" fill="#c2bdb4" stroke="none"/>
      <circle cx="18" cy="13" r="1" fill="#c2bdb4" stroke="none"/>
    </g>
    <g transform="translate(130,160) rotate(-10,9,11)">
      <rect x="0" y="0" width="18" height="22" rx="1"/>
      <line x1="5" y1="0" x2="5" y2="22"/>
      <line x1="8" y1="6" x2="15" y2="6"/><line x1="8" y1="10" x2="13" y2="10"/>
    </g>
    <g transform="translate(178,158) rotate(25,10,10)">
      <path d="M10 5c-6-6-14 0-8 8l8-3"/><path d="M10 5c6-6 14 0 8 8l-8-3"/>
      <path d="M10 10c-4 4-10 2-6-3l6 3"/><path d="M10 10c4 4 10 2 6-3l-6 3"/>
    </g>
    <g transform="translate(232,162) rotate(-15,10,12)">
      <rect x="4" y="0" width="12" height="4" rx="1"/>
      <path d="M4 4v6a6 6 0 0012 0V4"/>
      <path d="M4 6H1c0 4 2 5 3 5"/><path d="M16 6h3c0 4-2 5-3 5"/>
      <line x1="10" y1="16" x2="10" y2="20"/>
      <rect x="5" y="20" width="10" height="3" rx="1"/>
    </g>
    <!-- Bench -->
    <g transform="translate(278,165)">
      <line x1="0" y1="0" x2="24" y2="0"/>
      <line x1="0" y1="4" x2="24" y2="4"/>
      <line x1="2" y1="4" x2="0" y2="12"/><line x1="22" y1="4" x2="24" y2="12"/>
      <line x1="2" y1="0" x2="2" y2="4"/><line x1="22" y1="0" x2="22" y2="4"/>
    </g>
    <!-- Rocket -->
    <g transform="translate(335,155)">
      <path d="M10 0C6 5 6 14 8 20h4c2-6 2-15-2-20z"/>
      <path d="M8 15c-4 0-6 3-6 5l6-2"/><path d="M12 15c4 0 6 3 6 5l-6-2"/>
      <circle cx="10" cy="8" r="2"/>
    </g>
    <!-- Donut -->
    <g transform="translate(380,162)">
      <circle cx="10" cy="10" r="9"/><circle cx="10" cy="10" r="4"/>
      <path d="M3 7c2-1 4 0 5 1s3 0 4-1 3-1 5 0"/>
    </g>

    <!-- Row 5 -->
    <!-- Gamepad -->
    <g transform="translate(15,215)">
      <rect x="0" y="4" width="24" height="14" rx="7"/>
      <line x1="7" y1="8" x2="7" y2="14"/><line x1="4" y1="11" x2="10" y2="11"/>
      <circle cx="16" cy="9" r="1.2" fill="#c2bdb4" stroke="none"/>
      <circle cx="19" cy="12" r="1.2" fill="#c2bdb4" stroke="none"/>
    </g>
    <!-- Umbrella -->
    <g transform="translate(65,210)">
      <path d="M2 12A10 10 0 0122 12"/>
      <line x1="12" y1="2" x2="12" y2="22"/>
      <path d="M12 22c-3 0-3-3 0-3"/>
    </g>
    <!-- Cactus -->
    <g transform="translate(115,212)">
      <rect x="6" y="4" width="6" height="18" rx="3"/>
      <path d="M6 10H3a3 3 0 010-6"/><path d="M12 14h3a3 3 0 000-6"/>
    </g>
    <!-- Cassette tape -->
    <g transform="translate(158,215)">
      <rect x="0" y="0" width="24" height="16" rx="2"/>
      <circle cx="7" cy="8" r="3"/><circle cx="17" cy="8" r="3"/>
      <line x1="10" y1="8" x2="14" y2="8"/>
      <line x1="3" y1="16" x2="7" y2="13"/><line x1="21" y1="16" x2="17" y2="13"/>
    </g>
    <!-- Ice cream cone -->
    <g transform="translate(210,210)">
      <circle cx="8" cy="6" r="6"/>
      <path d="M2 8l6 16 6-16"/>
    </g>
    <!-- Lightning bolt -->
    <g transform="translate(258,210)">
      <polygon points="10,0 2,12 8,12 6,22 16,8 10,8"/>
    </g>
    <!-- Guitar -->
    <g transform="translate(300,208)">
      <ellipse cx="8" cy="18" rx="7" ry="5"/>
      <line x1="13" y1="14" x2="18" y2="2"/>
      <line x1="16" y1="0" x2="20" y2="4"/>
      <circle cx="8" cy="18" r="2"/>
    </g>
    <!-- Baby bottle -->
    <g transform="translate(350,212)">
      <rect x="3" y="8" width="10" height="14" rx="3"/>
      <rect x="4" y="4" width="8" height="5" rx="1"/>
      <path d="M6 4V1h4v3"/>
      <line x1="3" y1="14" x2="13" y2="14"/>
    </g>

    <!-- Row 6 -->
    <!-- Sunglasses -->
    <g transform="translate(20,268)">
      <circle cx="5" cy="8" r="5"/><circle cx="19" cy="8" r="5"/>
      <line x1="10" y1="8" x2="14" y2="8"/>
      <line x1="0" y1="6" x2="-2" y2="4"/><line x1="24" y1="6" x2="26" y2="4"/>
    </g>
    <!-- Crown -->
    <g transform="translate(70,270)">
      <path d="M0 18l3-12 5 6 5-8 5 8 5-6 3 12z"/>
    </g>
    <!-- Apple -->
    <g transform="translate(120,268)">
      <path d="M10 4c-6-1-11 4-10 10s4 10 10 10c6 0 10-4 10-10S16 3 10 4z"/>
      <path d="M10 4c0-3 3-4 4-4"/>
    </g>
    <!-- Pizza -->
    <g transform="translate(170,270)">
      <path d="M10 0L0 22h20z"/>
      <circle cx="8" cy="12" r="2" fill="#c2bdb4" stroke="none"/>
      <circle cx="13" cy="16" r="2" fill="#c2bdb4" stroke="none"/>
      <circle cx="10" cy="8" r="1.5" fill="#c2bdb4" stroke="none"/>
    </g>
    <!-- Plane -->
    <g transform="translate(218,270)">
      <path d="M12 0l-3 8-8 2 8 2 3 8 3-8 8-2-8-2z"/>
    </g>
    <!-- Paw print -->
    <g transform="translate(268,272)">
      <ellipse cx="10" cy="14" rx="5" ry="4"/>
      <circle cx="5" cy="8" r="2.5" fill="#c2bdb4" stroke="none"/>
      <circle cx="15" cy="8" r="2.5" fill="#c2bdb4" stroke="none"/>
      <circle cx="2" cy="12" r="2" fill="#c2bdb4" stroke="none"/>
      <circle cx="18" cy="12" r="2" fill="#c2bdb4" stroke="none"/>
    </g>
    <!-- Stopwatch -->
    <g transform="translate(315,265)">
      <circle cx="10" cy="12" r="9"/>
      <line x1="10" y1="12" x2="10" y2="7"/><line x1="10" y1="12" x2="14" y2="12"/>
      <line x1="10" y1="0" x2="10" y2="3"/>
      <line x1="8" y1="0" x2="12" y2="0"/>
    </g>
    <!-- Fish -->
    <g transform="translate(362,272)">
      <path d="M20 10c-4-6-12-8-18-5l-2 5 2 5c6 3 14 1 18-5z"/>
      <circle cx="15" cy="10" r="1.5" fill="#c2bdb4" stroke="none"/>
      <path d="M3 5L0 2v6"/><path d="M3 15L0 18v-6"/>
    </g>

    <!-- Row 7 -->
    <!-- Drum -->
    <g transform="translate(15,320)">
      <ellipse cx="10" cy="4" rx="10" ry="4"/>
      <line x1="0" y1="4" x2="0" y2="16"/><line x1="20" y1="4" x2="20" y2="16"/>
      <ellipse cx="10" cy="16" rx="10" ry="4"/>
      <line x1="0" y1="6" x2="20" y2="14"/><line x1="20" y1="6" x2="0" y2="14"/>
    </g>
    <!-- Diamond -->
    <g transform="translate(62,325)">
      <polygon points="10,0 20,8 10,20 0,8"/>
      <line x1="0" y1="8" x2="20" y2="8"/>
      <line x1="10" y1="0" x2="6" y2="8"/><line x1="10" y1="0" x2="14" y2="8"/>
      <line x1="6" y1="8" x2="10" y2="20"/><line x1="14" y1="8" x2="10" y2="20"/>
    </g>
    <!-- Bow tie -->
    <g transform="translate(112,330)">
      <path d="M0 0l10 8L0 16z"/><path d="M24 0L14 8l10 8z"/>
      <rect x="9" y="5" width="6" height="6" rx="1"/>
    </g>
    <!-- Sun -->
    <g transform="translate(162,322)">
      <circle cx="10" cy="10" r="5"/>
      <line x1="10" y1="0" x2="10" y2="3"/><line x1="10" y1="17" x2="10" y2="20"/>
      <line x1="0" y1="10" x2="3" y2="10"/><line x1="17" y1="10" x2="20" y2="10"/>
      <line x1="3" y1="3" x2="5" y2="5"/><line x1="15" y1="15" x2="17" y2="17"/>
      <line x1="17" y1="3" x2="15" y2="5"/><line x1="5" y1="15" x2="3" y2="17"/>
    </g>
    <!-- Ticket -->
    <g transform="translate(210,325)">
      <path d="M0 0h24v7a3 3 0 000 6v7H0v-7a3 3 0 000-6z"/>
      <line x1="8" y1="0" x2="8" y2="3"/><line x1="8" y1="6" x2="8" y2="9"/>
      <line x1="8" y1="11" x2="8" y2="14"/><line x1="8" y1="17" x2="8" y2="20"/>
    </g>
    <!-- Leaf -->
    <g transform="translate(260,325)">
      <path d="M2 20C2 8 10 2 22 2c0 12-6 18-18 18z"/>
      <path d="M2 20C8 14 14 10 22 2"/>
    </g>
    <!-- Dog face -->
    <g transform="translate(310,322)">
      <circle cx="10" cy="12" r="8"/>
      <path d="M2 8C0 4 0 0 4 2"/><path d="M18 8C20 4 20 0 16 2"/>
      <circle cx="7" cy="10" r="1.5" fill="#c2bdb4" stroke="none"/>
      <circle cx="13" cy="10" r="1.5" fill="#c2bdb4" stroke="none"/>
      <ellipse cx="10" cy="14" rx="3" ry="2"/>
    </g>
    <!-- Cupcake -->
    <g transform="translate(362,320)">
      <path d="M3 10h14l-2 14H5z"/>
      <path d="M3 10c0-5 3-7 7-7s7 2 7 7"/>
      <circle cx="10" cy="5" r="2"/>
    </g>

    <!-- Row 8 -->
    <!-- Moon -->
    <g transform="translate(20,378)">
      <path d="M16 2A9 9 0 102 16c-5-8 3-16 14-14z"/>
    </g>
    <!-- Scissors -->
    <g transform="translate(60,380)">
      <circle cx="5" cy="5" r="4"/><circle cx="5" cy="17" r="4"/>
      <line x1="8" y1="7" x2="20" y2="17"/><line x1="8" y1="15" x2="20" y2="5"/>
    </g>
    <!-- Gift bag -->
    <g transform="translate(110,376)">
      <rect x="0" y="6" width="16" height="16" rx="1"/>
      <path d="M0 6c0-4 3-6 8-6s8 2 8 6"/>
      <line x1="8" y1="6" x2="8" y2="22"/>
    </g>
    <!-- Coffee cup -->
    <g transform="translate(158,380)">
      <rect x="2" y="4" width="14" height="14" rx="2"/>
      <path d="M16 7h3a3 3 0 010 6h-3"/>
      <path d="M6 0c1 2-1 3 0 4"/><path d="M9 0c1 2-1 3 0 4"/><path d="M12 0c1 2-1 3 0 4"/>
    </g>
    <!-- Candy -->
    <g transform="translate(208,380)">
      <circle cx="10" cy="10" r="6"/>
      <path d="M4 6L0 2"/><path d="M16 14l4 4"/>
      <path d="M-1 4l3-3"/><path d="M18 18l3-3"/>
    </g>
    <!-- Pencil -->
    <g transform="translate(255,378)">
      <rect x="4" y="0" width="6" height="18" rx="0"/>
      <polygon points="4,18 7,24 10,18"/>
      <line x1="4" y1="3" x2="10" y2="3"/>
    </g>
    <!-- Lightbulb -->
    <g transform="translate(300,375)">
      <path d="M10 0A8 8 0 004 14c1 2 2 3 2 5h8c0-2 1-3 2-5A8 8 0 0010 0z"/>
      <line x1="6" y1="19" x2="14" y2="19"/><line x1="6" y1="21" x2="14" y2="21"/>
      <line x1="8" y1="23" x2="12" y2="23"/>
    </g>
    <!-- Ring -->
    <g transform="translate(348,380)">
      <circle cx="10" cy="8" r="7"/>
      <path d="M6 14h8v5a4 4 0 01-8 0z"/>
      <circle cx="10" cy="3" r="3"/>
    </g>

  </g>
</svg>